<svg width="84" height="23" viewBox="0 0 84 23" fill="none" xmlns="http://www.w3.org/2000/svg">
<g clip-path="url(#clip0_43_109)">
<path d="M17.3107 13.6493L10.3339 7.8078L15.349 3.60761C15.4632 3.5111 15.5531 3.39018 15.6117 3.25424C15.6703 3.1183 15.696 2.971 15.6869 2.82377C15.6778 2.67654 15.634 2.53335 15.5591 2.40531C15.4841 2.27727 15.3799 2.16784 15.2546 2.08549C10.9901 -0.693211 6.66324 -0.693211 2.3987 2.08549C2.27286 2.16737 2.16813 2.27657 2.09269 2.40456C2.01725 2.53254 1.97316 2.67584 1.96385 2.82325C1.95454 2.97065 1.98028 3.11816 2.03905 3.25423C2.09782 3.39031 2.18802 3.51125 2.3026 3.60761L7.32378 7.8078L0.345207 13.6493C0.243008 13.7356 0.160074 13.8414 0.101563 13.9603C0.0430517 14.0792 0.0102168 14.2086 0.00510098 14.3405C-1.48742e-05 14.4723 0.0226979 14.6037 0.0718259 14.7266C0.120954 14.8495 0.195446 14.9612 0.290667 15.0547L8.13669 22.7186C8.22762 22.8075 8.33559 22.878 8.45442 22.9261C8.57326 22.9742 8.70063 22.9989 8.82927 22.9989C8.9579 22.9989 9.08528 22.9742 9.20411 22.9261C9.32295 22.878 9.43092 22.8075 9.52185 22.7186L17.3644 15.0514C17.4604 14.9582 17.5356 14.8467 17.5852 14.7238C17.6349 14.6009 17.6579 14.4692 17.6528 14.3372C17.6478 14.2051 17.6148 14.0755 17.5559 13.9566C17.497 13.8376 17.4136 13.7318 17.3107 13.6459V13.6493ZM4.61234 3.0199C7.43719 1.55783 10.2136 1.55783 13.0384 3.0199L8.82581 6.54528L4.61234 3.0199ZM8.82581 9.07031L14.0201 13.4202H3.63148L8.82581 9.07031ZM7.84495 15.3355V19.7276L3.34839 15.3355H7.84495ZM9.80667 19.7276V15.3355H14.3024L9.80667 19.7276Z" fill="#2566B0"/>
<path d="M26.4512 8.80127C29.7557 8.80127 31.8749 11.2722 31.8749 14.6555V15.2119H23.3753C23.5571 16.8372 24.8107 18.1716 26.8841 18.1716C27.9558 18.1716 29.2319 17.7488 30.0067 16.9919L31.1001 18.5276C30.0067 19.5516 28.3887 20.0861 26.6339 20.0861C23.3294 20.0861 20.8682 17.8376 20.8682 14.4322C20.8682 11.3161 23.1926 8.80127 26.4512 8.80127ZM23.3519 13.5646H29.5505C29.5055 12.2962 28.6164 10.7157 26.4512 10.7157C24.4003 10.7157 23.4662 12.2514 23.3519 13.5646Z" fill="white"/>
<path d="M33.7025 16.7255C34.4816 17.5044 36.0044 18.2392 37.4407 18.2392C38.8769 18.2392 39.605 17.7276 39.605 16.9259C39.605 15.9907 38.4432 15.6575 37.0944 15.3675C35.2028 14.9666 32.9467 14.477 32.9467 12.0696C32.9467 10.3115 34.4964 8.79785 37.2753 8.79785C39.1435 8.79785 40.5564 9.44306 41.5589 10.3115L40.5564 11.9588C39.8959 11.2239 38.6648 10.6675 37.2978 10.6675C36.0443 10.6675 35.2469 11.1123 35.2469 11.8691C35.2469 12.6928 36.3403 12.9828 37.6398 13.272C39.5539 13.6729 41.9009 14.2022 41.9009 16.7441C41.9009 18.6366 40.2828 20.0835 37.3203 20.0835C35.4521 20.0835 33.7423 19.5051 32.603 18.4142L33.7025 16.7255Z" fill="white"/>
<path d="M50.8101 18.3947C50.317 18.9259 49.7158 19.3507 49.045 19.6419C48.3742 19.9332 47.6485 20.0844 46.9144 20.0859C44.544 20.0859 43.3813 18.8835 43.3813 16.6798V9.06921H45.7742V15.8342C45.7742 17.5034 46.6399 18.0159 47.9853 18.0159C49.1973 18.0159 50.2413 17.3478 50.811 16.613V9.06836H53.203V19.8196H50.8101V18.3947Z" fill="white"/>
<path d="M68.9416 12.8078C68.9416 11.6502 68.417 10.8713 67.1409 10.8713C66.07 10.8713 65.0675 11.6062 64.5887 12.2962V19.8222H62.1959V12.8078C62.1959 11.6502 61.6713 10.8713 60.3727 10.8713C59.3243 10.8713 58.3443 11.6062 57.843 12.3182V19.8197H55.4502V9.06848H57.843V10.5373C58.2984 9.86928 59.7572 8.80127 61.4211 8.80127C63.0616 8.80127 64.0641 9.60207 64.4294 10.7826C65.0675 9.80248 66.5254 8.80127 68.1668 8.80127C70.1943 8.80127 71.3344 9.86929 71.3344 12.051V19.8197H68.9416V12.8078Z" fill="white"/>
<path d="M72.6748 14.4331C72.6748 11.361 74.8391 8.80127 78.3262 8.80127C81.8584 8.80127 84.001 11.361 84.001 14.4331C84.001 17.5272 81.8584 20.0869 78.3262 20.0869C74.8391 20.0869 72.6748 17.5272 72.6748 14.4331ZM81.5164 14.4331C81.5164 12.5406 80.3771 10.8713 78.3262 10.8713C76.2978 10.8713 75.1586 12.5406 75.1586 14.4331C75.1586 16.3467 76.2978 18.0168 78.3262 18.0168C80.3771 18.0168 81.5164 16.3467 81.5164 14.4331Z" fill="white"/>
</g>
<defs>
<clipPath id="clip0_43_109">
<rect width="84" height="23" fill="white"/>
</clipPath>
</defs>
</svg>
