<?xml version="1.0" encoding="UTF-8"?>
<svg id="content" xmlns="http://www.w3.org/2000/svg" viewBox="0 0 3240 1126">
  <defs>
    <style>
      .cls-1 {
        fill: #2066b2;
      }

      .cls-2 {
        fill: #ee4550;
      }

      .cls-3 {
        fill: #000001;
      }
    </style>
  </defs>
  <rect class="cls-3" x="1911.02" y="-521.59" width="115.12" height="1614.4" transform="translate(2254.19 -1682.97) rotate(90)"/>
  <polygon class="cls-1" points="877.99 112.94 877.99 228.05 257.57 228.05 257.57 112.94 142.45 112.94 142.45 228.05 142.45 343.17 993.1 343.17 993.1 228.05 993.1 112.94 877.99 112.94"/>
  <rect class="cls-2" x="2924.88" y="170.49" width="172.67" height="172.67"/>
  <path class="cls-3" d="M300.87,898.41c-29.59,0-56.4-6.17-80.44-18.5-24.04-12.33-43.05-30.2-57.02-53.63-13.98-23.42-20.96-51.78-20.96-85.06v-8.63c0-33.28,6.98-61.64,20.96-85.06,13.97-23.42,32.98-41.3,57.02-53.63,24.04-12.33,50.86-18.5,80.44-18.5s54.25,5.14,75.2,15.41c20.96,10.28,37.91,24.35,50.85,42.22,12.94,17.88,21.47,38.12,25.58,60.72l-75.2,16.03c-1.65-12.33-5.35-23.42-11.1-33.29-5.76-9.86-13.87-17.66-24.35-23.42-10.48-5.75-23.53-8.63-39.14-8.63s-29.69,3.39-42.22,10.17c-12.54,6.78-22.4,16.86-29.59,30.2-7.2,13.36-10.79,29.69-10.79,49v6.17c0,19.32,3.59,35.66,10.79,49,7.18,13.36,17.05,23.42,29.59,30.2,12.53,6.78,26.6,10.17,42.22,10.17,23.42,0,41.19-6.06,53.32-18.19,12.12-12.12,19.82-28.05,23.11-47.77l75.2,17.88c-5.35,21.78-14.49,41.61-27.43,59.48-12.94,17.88-29.9,31.96-50.85,42.22-20.96,10.27-46.03,15.41-75.2,15.41Z"/>
  <path class="cls-3" d="M518.47,889.78v-305.74h76.44v34.52h11.1c4.52-12.33,12.02-21.36,22.5-27.12,10.48-5.75,22.7-8.63,36.68-8.63h36.99v69.04h-38.22c-19.72,0-35.97,5.24-48.7,15.72-12.74,10.48-19.11,26.61-19.11,48.39v173.83h-77.67Z"/>
  <path class="cls-3" d="M896.95,898.41c-30.42,0-57.74-6.17-81.98-18.5-24.25-12.33-43.36-30.2-57.33-53.63-13.98-23.42-20.96-51.57-20.96-84.45v-9.86c0-32.87,6.98-61.03,20.96-84.45,13.97-23.42,33.07-41.3,57.33-53.63,24.24-12.33,51.57-18.5,81.98-18.5s57.73,6.17,81.98,18.5c24.24,12.33,43.35,30.2,57.33,53.63,13.96,23.42,20.96,51.57,20.96,84.45v9.86c0,32.88-6.99,61.03-20.96,84.45-13.98,23.42-33.09,41.3-57.33,53.63-24.25,12.33-51.58,18.5-81.98,18.5Zm0-69.04c23.83,0,43.55-7.71,59.18-23.12,15.61-15.41,23.42-37.49,23.42-66.26v-6.17c0-28.76-7.7-50.85-23.12-66.26-15.41-15.41-35.24-23.12-59.48-23.12s-43.56,7.71-59.18,23.12c-15.62,15.41-23.42,37.5-23.42,66.26v6.17c0,28.77,7.8,50.85,23.42,66.26,15.61,15.41,35.34,23.12,59.18,23.12Z"/>
  <path class="cls-3" d="M1152.15,889.78l-43.15-305.74h77.05l27.12,253.35h11.1l39.45-253.35h124.52l39.45,253.35h11.09l27.12-253.35h77.05l-43.15,305.74h-128.83l-39.45-253.35h-11.1l-39.45,253.35h-128.83Z"/>
  <path class="cls-3" d="M1732.82,898.41c-24.25,0-46.96-6.07-68.11-18.19-21.17-12.12-38.12-29.89-50.86-53.32-12.74-23.42-19.11-51.78-19.11-85.07v-9.86c0-33.29,6.37-61.64,19.11-85.07,12.73-23.42,29.59-41.19,50.55-53.32,20.96-12.12,43.77-18.19,68.42-18.19,18.49,0,34,2.16,46.54,6.47,12.53,4.31,22.7,9.77,30.51,16.33,7.8,6.58,13.76,13.56,17.88,20.96h11.09v-160.89h77.67v431.5h-76.44v-36.98h-11.09c-6.99,11.51-17.78,21.99-32.36,31.44-14.59,9.45-35.86,14.18-63.8,14.18Zm23.42-67.81c23.83,0,43.77-7.71,59.79-23.12,16.03-15.41,24.04-37.91,24.04-67.5v-6.17c0-29.59-7.92-52.09-23.73-67.5-15.83-15.41-35.86-23.12-60.1-23.12s-43.77,7.71-59.79,23.12c-16.03,15.41-24.04,37.91-24.04,67.5v6.17c0,29.59,8.02,52.09,24.04,67.5,16.03,15.41,35.96,23.12,59.79,23.12Z"/>
  <path class="cls-3" d="M2002.8,1013.06v-429.03h76.44v36.98h11.09c6.98-11.91,17.88-22.5,32.67-31.74,14.79-9.25,35.95-13.87,63.49-13.87,24.66,0,47.47,6.07,68.42,18.19,20.96,12.13,37.8,29.89,50.55,53.32,12.73,23.42,19.11,51.78,19.11,85.07v9.86c0,33.29-6.37,61.64-19.11,85.07-12.74,23.42-29.59,41.2-50.55,53.32-20.96,12.12-43.77,18.19-68.42,18.19-18.49,0-34.01-2.16-46.54-6.47-12.54-4.31-22.6-9.86-30.2-16.64-7.61-6.78-13.67-13.66-18.19-20.65h-11.09v158.42h-77.67Zm160.27-182.46c24.24,0,44.28-7.71,60.1-23.12,15.81-15.41,23.73-37.91,23.73-67.5v-6.17c0-29.59-8.01-52.09-24.04-67.5-16.03-15.41-35.96-23.12-59.79-23.12s-43.76,7.71-59.79,23.12c-16.03,15.41-24.04,37.91-24.04,67.5v6.17c0,29.59,8.01,52.09,24.04,67.5,16.03,15.41,35.96,23.12,59.79,23.12Z"/>
  <path class="cls-3" d="M2512.57,894.71c-23.84,0-44.69-5.44-62.57-16.33-17.88-10.89-31.75-25.99-41.61-45.31-9.86-19.31-14.8-41.5-14.8-66.57v-182.46h77.67v176.29c0,23.02,5.64,40.28,16.95,51.78,11.3,11.51,27.43,17.26,48.39,17.26,23.83,0,42.32-7.91,55.48-23.73,13.15-15.81,19.72-37.91,19.72-66.27v-155.34h77.67v305.74h-76.44v-40.07h-11.1c-4.93,10.28-14.17,20.34-27.74,30.2-13.56,9.86-34.11,14.8-61.64,14.8Z"/>
  <path class="cls-3" d="M2959.47,898.41c-27.54,0-48.7-4.73-63.49-14.18-14.8-9.45-25.69-19.93-32.67-31.44h-11.09v36.98h-76.44V458.28h77.67v160.89h11.09c4.52-7.4,10.58-14.38,18.19-20.96,7.6-6.57,17.66-12.02,30.2-16.33,12.53-4.31,28.05-6.47,46.54-6.47,24.66,0,47.47,6.07,68.42,18.19,20.96,12.13,37.8,29.89,50.55,53.32,12.73,23.42,19.11,51.78,19.11,85.07v9.86c0,33.29-6.37,61.64-19.11,85.07-12.74,23.42-29.59,41.2-50.55,53.32-20.96,12.12-43.77,18.19-68.42,18.19Zm-23.42-67.81c23.83,0,43.77-7.71,59.79-23.12,16.03-15.41,24.04-37.91,24.04-67.5v-6.17c0-29.59-7.92-52.09-23.73-67.5-15.82-15.41-35.86-23.12-60.1-23.12s-43.76,7.71-59.79,23.12c-16.03,15.41-24.04,37.91-24.04,67.5v6.17c0,29.59,8.01,52.09,24.04,67.5,16.03,15.41,35.96,23.12,59.79,23.12Z"/>
</svg>