<svg width="3240" height="1126" viewBox="0 0 3240 1126" fill="none" xmlns="http://www.w3.org/2000/svg">
<path d="M2775.78 343.17V228.05L1161.38 228.05V343.17L2775.78 343.17Z" fill="white"/>
<path d="M877.99 112.94V228.05H257.57V112.94H142.45V228.05V343.17H993.1V228.05V112.94H877.99Z" fill="white"/>
<path d="M3097.55 170.49H2924.88V343.16H3097.55V170.49Z" fill="white"/>
<path d="M300.87 898.41C271.28 898.41 244.47 892.24 220.43 879.91C196.39 867.58 177.38 849.71 163.41 826.28C149.43 802.86 142.45 774.5 142.45 741.22V732.59C142.45 699.31 149.43 670.95 163.41 647.53C177.38 624.11 196.39 606.23 220.43 593.9C244.47 581.57 271.29 575.4 300.87 575.4C330.45 575.4 355.12 580.54 376.07 590.81C397.03 601.09 413.98 615.16 426.92 633.03C439.86 650.91 448.39 671.15 452.5 693.75L377.3 709.78C375.65 697.45 371.95 686.36 366.2 676.49C360.44 666.63 352.33 658.83 341.85 653.07C331.37 647.32 318.32 644.44 302.71 644.44C287.1 644.44 273.02 647.83 260.49 654.61C247.95 661.39 238.09 671.47 230.9 684.81C223.7 698.17 220.11 714.5 220.11 733.81V739.98C220.11 759.3 223.7 775.64 230.9 788.98C238.08 802.34 247.95 812.4 260.49 819.18C273.02 825.96 287.09 829.35 302.71 829.35C326.13 829.35 343.9 823.29 356.03 811.16C368.15 799.04 375.85 783.11 379.14 763.39L454.34 781.27C448.99 803.05 439.85 822.88 426.91 840.75C413.97 858.63 397.01 872.71 376.06 882.97C355.1 893.24 330.03 898.38 300.86 898.38L300.87 898.41Z" fill="white"/>
<path d="M518.47 889.78V584.04H594.91V618.56H606.01C610.53 606.23 618.03 597.2 628.51 591.44C638.99 585.69 651.21 582.81 665.19 582.81H702.18V651.85H663.96C644.24 651.85 627.99 657.09 615.26 667.57C602.52 678.05 596.15 694.18 596.15 715.96V889.79H518.48L518.47 889.78Z" fill="white"/>
<path d="M896.95 898.41C866.53 898.41 839.21 892.24 814.97 879.91C790.72 867.58 771.61 849.71 757.64 826.28C743.66 802.86 736.68 774.71 736.68 741.83V731.97C736.68 699.1 743.66 670.94 757.64 647.52C771.61 624.1 790.71 606.22 814.97 593.89C839.21 581.56 866.54 575.39 896.95 575.39C927.36 575.39 954.68 581.56 978.93 593.89C1003.17 606.22 1022.28 624.09 1036.26 647.52C1050.22 670.94 1057.22 699.09 1057.22 731.97V741.83C1057.22 774.71 1050.23 802.86 1036.26 826.28C1022.28 849.7 1003.17 867.58 978.93 879.91C954.68 892.24 927.35 898.41 896.95 898.41V898.41ZM896.95 829.37C920.78 829.37 940.5 821.66 956.13 806.25C971.74 790.84 979.55 768.76 979.55 739.99V733.82C979.55 705.06 971.85 682.97 956.43 667.56C941.02 652.15 921.19 644.44 896.95 644.44C872.71 644.44 853.39 652.15 837.77 667.56C822.15 682.97 814.35 705.06 814.35 733.82V739.99C814.35 768.76 822.15 790.84 837.77 806.25C853.38 821.66 873.11 829.37 896.95 829.37V829.37Z" fill="white"/>
<path d="M1152.15 889.78L1109 584.04H1186.05L1213.17 837.39H1224.27L1263.72 584.04H1388.24L1427.69 837.39H1438.78L1465.9 584.04H1542.95L1499.8 889.78H1370.97L1331.52 636.43H1320.42L1280.97 889.78H1152.14H1152.15Z" fill="white"/>
<path d="M1732.82 898.41C1708.57 898.41 1685.86 892.34 1664.71 880.22C1643.54 868.1 1626.59 850.33 1613.85 826.9C1601.11 803.48 1594.74 775.12 1594.74 741.83V731.97C1594.74 698.68 1601.11 670.33 1613.85 646.9C1626.58 623.48 1643.44 605.71 1664.4 593.58C1685.36 581.46 1708.17 575.39 1732.82 575.39C1751.31 575.39 1766.82 577.55 1779.36 581.86C1791.89 586.17 1802.06 591.63 1809.87 598.19C1817.67 604.77 1823.63 611.75 1827.75 619.15H1838.84V458.26H1916.51V889.76H1840.07V852.78H1828.98C1821.99 864.29 1811.2 874.77 1796.62 884.22C1782.03 893.67 1760.76 898.4 1732.82 898.4V898.41ZM1756.24 830.6C1780.07 830.6 1800.01 822.89 1816.03 807.48C1832.06 792.07 1840.07 769.57 1840.07 739.98V733.81C1840.07 704.22 1832.15 681.72 1816.34 666.31C1800.51 650.9 1780.48 643.19 1756.24 643.19C1732 643.19 1712.47 650.9 1696.45 666.31C1680.42 681.72 1672.41 704.22 1672.41 733.81V739.98C1672.41 769.57 1680.43 792.07 1696.45 807.48C1712.48 822.89 1732.41 830.6 1756.24 830.6Z" fill="white"/>
<path d="M2002.8 1013.06V584.03H2079.24V621.01H2090.33C2097.31 609.1 2108.21 598.51 2123 589.27C2137.79 580.02 2158.95 575.4 2186.49 575.4C2211.15 575.4 2233.96 581.47 2254.91 593.59C2275.87 605.72 2292.71 623.48 2305.46 646.91C2318.19 670.33 2324.57 698.69 2324.57 731.98V741.84C2324.57 775.13 2318.2 803.48 2305.46 826.91C2292.72 850.33 2275.87 868.11 2254.91 880.23C2233.95 892.35 2211.14 898.42 2186.49 898.42C2168 898.42 2152.48 896.26 2139.95 891.95C2127.41 887.64 2117.35 882.09 2109.75 875.31C2102.14 868.53 2096.08 861.65 2091.56 854.66H2080.47V1013.08H2002.8V1013.06ZM2163.07 830.6C2187.31 830.6 2207.35 822.89 2223.17 807.48C2238.98 792.07 2246.9 769.57 2246.9 739.98V733.81C2246.9 704.22 2238.89 681.72 2222.86 666.31C2206.83 650.9 2186.9 643.19 2163.07 643.19C2139.24 643.19 2119.31 650.9 2103.28 666.31C2087.25 681.72 2079.24 704.22 2079.24 733.81V739.98C2079.24 769.57 2087.25 792.07 2103.28 807.48C2119.31 822.89 2139.24 830.6 2163.07 830.6Z" fill="white"/>
<path d="M2512.57 894.71C2488.73 894.71 2467.88 889.27 2450 878.38C2432.12 867.49 2418.25 852.39 2408.39 833.07C2398.53 813.76 2393.59 791.57 2393.59 766.5V584.04H2471.26V760.33C2471.26 783.35 2476.9 800.61 2488.21 812.11C2499.51 823.62 2515.64 829.37 2536.6 829.37C2560.43 829.37 2578.92 821.46 2592.08 805.64C2605.23 789.83 2611.8 767.73 2611.8 739.37V584.03H2689.47V889.77H2613.03V849.7H2601.93C2597 859.98 2587.76 870.04 2574.19 879.9C2560.63 889.76 2540.08 894.7 2512.55 894.7L2512.57 894.71Z" fill="white"/>
<path d="M2959.47 898.41C2931.93 898.41 2910.77 893.68 2895.98 884.23C2881.18 874.78 2870.29 864.3 2863.31 852.79H2852.22V889.77H2775.78V458.28H2853.45V619.17H2864.54C2869.06 611.77 2875.12 604.79 2882.73 598.21C2890.33 591.64 2900.39 586.19 2912.93 581.88C2925.46 577.57 2940.98 575.41 2959.47 575.41C2984.13 575.41 3006.94 581.48 3027.89 593.6C3048.85 605.73 3065.69 623.49 3078.44 646.92C3091.17 670.34 3097.55 698.7 3097.55 731.99V741.85C3097.55 775.14 3091.18 803.49 3078.44 826.92C3065.7 850.34 3048.85 868.12 3027.89 880.24C3006.93 892.36 2984.12 898.43 2959.47 898.43V898.41ZM2936.05 830.6C2959.88 830.6 2979.82 822.89 2995.84 807.48C3011.87 792.07 3019.88 769.57 3019.88 739.98V733.81C3019.88 704.22 3011.96 681.72 2996.15 666.31C2980.33 650.9 2960.29 643.19 2936.05 643.19C2911.81 643.19 2892.29 650.9 2876.26 666.31C2860.23 681.72 2852.22 704.22 2852.22 733.81V739.98C2852.22 769.57 2860.23 792.07 2876.26 807.48C2892.29 822.89 2912.22 830.6 2936.05 830.6Z" fill="white"/>
</svg>
